# xmcd
#
# Track frame offsets:
#	225
#	14632
#	31092
#	46259
#	64217
#	79375
#	90912
#	103213
#	123178
#	136103
#	149514
#	162215
#
# Disc length: 2421 seconds
#
# Revision: 1
# Processed by: cddbd v1.5.1PL0 Copyright (c) Steve Scherf et al.
# Submitted via: audiograbber 1.83.01
#
DISCID=9c09720c
DTITLE=Toni Dimitrova - Ah, Moreto
DYEAR=1997
DGENRE=Pop
TTITLE0=Ah, moreto
TTITLE1=Vednyj se jivee
TTITLE2=Sled godini
TTITLE3=Koi si ti
TTITLE4=Stariat kapitan
TTITLE5=Poniakoga
TTITLE6=Za tebe horata govoriat
TTITLE7=Ti , az i moreto
TTITLE8=Nyakoi den
TTITLE9=Tango v poluno6t
TTITLE10=Moe svetlo mom4e
TTITLE11=Nostalgi4no
EXTD=
EXTT0=
EXTT1=
EXTT2=
EXTT3=
EXTT4=
EXTT5=
EXTT6=
EXTT7=
EXTT8=
EXTT9=
EXTT10=
EXTT11=
PLAYORDER=
